<svg width="64" height="64" viewBox="0 0 64 64" fill="none" xmlns="http://www.w3.org/2000/svg">
<path d="M29.3007 40.5584L30.1903 44.5604C30.7668 47.1527 33.066 48.9972 35.7221 48.9972H41.917V40.4975C41.917 39.7156 42.5516 39.0809 43.3336 39.0809C44.1155 39.0809 44.7502 39.7156 44.7502 40.4975V48.9972C47.0975 48.9972 49 47.0947 49 44.7473V40.4975C49 38.1502 47.0975 36.2477 44.7502 36.2477H44.1042L40.9976 30.3702C40.7426 29.8715 40.3913 29.5004 40.0315 29.3517C39.7311 29.227 39.4266 29.1647 39.1248 29.1647C38.1587 29.1647 37.3626 29.7965 37.0962 30.7739C37.0651 30.8873 37.0254 31.1493 37.1062 31.6225L37.9278 36.2477H32.7586C30.4934 36.2477 28.8105 38.3457 29.3021 40.557L29.3007 40.5584ZM28.4578 15C21.0248 15 15 21.0248 15 28.4578C15 35.283 20.0856 40.9069 26.67 41.7838L26.534 41.1732C26.1119 39.2764 26.568 37.3172 27.7849 35.8015C29.0003 34.2871 30.8136 33.4159 32.7572 33.4159H34.5464L34.3169 32.1183C34.178 31.3236 34.1979 30.6181 34.3679 30.009C34.9628 27.8189 36.8767 26.3314 39.122 26.3314C39.7991 26.3314 40.4692 26.4674 41.1152 26.7352C41.3687 26.84 41.6138 26.976 41.8475 27.1361C41.1846 20.325 35.4445 15 28.4578 15ZM34.6908 25.2265L29.4196 30.2781C28.0385 31.6324 25.8257 31.6281 24.4502 30.2682L21.7969 27.7495C21.2402 27.1998 21.2345 26.3045 21.7813 25.745C22.3309 25.1854 23.2291 25.1755 23.7901 25.7251L26.9208 28.6958L32.709 23.1922C33.2728 22.6468 34.171 22.6596 34.7178 23.2234C35.2617 23.7844 35.2504 24.6797 34.6923 25.2265H34.6908Z" fill="#4CAF50"/>
</svg>
