<svg width="64" height="64" viewBox="0 0 64 64" fill="none" xmlns="http://www.w3.org/2000/svg">
<path d="M48.9986 37.667V44.7501C48.9986 47.0975 47.0961 49 44.7488 49H37.6657C33.4796 49 29.8248 46.7122 27.8628 43.3278L27.9195 43.2712C30.475 43.0757 32.8762 42.3489 34.9912 41.21L37.7876 43.9214C38.3429 44.4767 39.0696 44.7515 39.7963 44.7515C40.5174 44.7515 41.237 44.481 41.7781 43.937L45.7347 40.1022C46.2957 39.5582 46.3099 38.6601 45.7645 38.0991C45.2191 37.5381 44.3224 37.5253 43.7614 38.0693L39.7751 41.9041L37.4206 39.6219C40.7638 36.9969 42.9879 33.1862 43.2925 28.8754C43.3166 28.5439 43.3067 28.2153 43.3095 27.8852L43.3279 27.8668C46.7122 29.8288 49 33.4837 49 37.6698L48.9986 37.667ZM26.5284 40.5003H20.1862C17.3261 40.5003 15 38.1699 15 35.3069V28.17C15 21.5019 20.4157 15.4869 26.8273 15.0336C30.5317 14.7644 34.1511 16.123 36.7633 18.7338C39.3756 21.3447 40.727 24.9698 40.4649 28.6729C39.9975 35.3055 33.8763 40.5003 26.5284 40.5003ZM29.5202 33.7713C29.5202 32.7938 28.7269 32.0005 27.7495 32.0005C26.772 32.0005 25.9787 32.7938 25.9787 33.7713C25.9787 34.7488 26.772 35.5421 27.7495 35.5421C28.7269 35.5421 29.5202 34.7488 29.5202 33.7713ZM31.9327 24.1595C31.631 22.4425 30.2214 21.0344 28.5088 20.7355C27.2537 20.5074 25.983 20.8503 25.0197 21.6606C24.0535 22.4709 23.5011 23.658 23.5011 24.9174C23.5011 25.7008 24.1357 26.334 24.9177 26.334C25.6996 26.334 26.3343 25.7008 26.3343 24.9174C26.3343 24.4966 26.5184 24.1014 26.8414 23.8308C27.1672 23.5574 27.5866 23.4469 28.02 23.5248C28.5739 23.6212 29.0471 24.0929 29.1434 24.6482C29.2752 25.4005 28.8431 25.9331 28.4323 26.1583C27.8047 26.504 26.3343 27.3129 26.3343 29.1658C26.3343 29.9492 26.9689 30.5825 27.7509 30.5825C28.5329 30.5825 29.1675 29.9492 29.1675 29.1658C29.1675 29.0908 29.1675 28.9888 29.8007 28.6403C31.393 27.7606 32.25 25.96 31.9341 24.1581L31.9327 24.1595Z" fill="#4CAF50"/>
</svg>
