<svg width="64" height="64" viewBox="0 0 64 64" fill="none" xmlns="http://www.w3.org/2000/svg">
<path d="M27.5273 15.3492C27.5273 12.9467 29.474 11 31.8766 11C34.2791 11 36.2258 12.9467 36.2258 15.3492C36.2258 17.7518 34.2791 19.6985 31.8766 19.6985C29.474 19.6985 27.5273 17.7518 27.5273 15.3492ZM51.436 15.4014L48.9691 14.7856L48.3533 12.3187C48.1602 11.5445 47.4643 11.0017 46.6658 11.0017C45.8672 11.0017 45.1714 11.5445 44.9782 12.3187L44.3676 14.7647L41.9251 15.3301C41.1474 15.5093 40.5907 16.1965 40.5768 16.9933C40.5629 17.7918 41.0935 18.4981 41.8642 18.7051L44.3554 19.3749L44.9765 21.8627C45.1696 22.6368 45.8655 23.1796 46.664 23.1796C47.4625 23.1796 48.1584 22.6368 48.3515 21.8627L48.9674 19.3958L51.4343 18.7799C52.2084 18.5868 52.7512 17.8909 52.7512 17.0924C52.7512 16.2939 52.2067 15.598 51.4343 15.4049L51.436 15.4014ZM17.4318 25.8362L18.3417 23.5606L20.6172 22.6508C21.113 22.4524 21.4384 21.9723 21.4384 21.4382C21.4384 20.9041 21.113 20.424 20.6172 20.2256L18.3417 19.3158L17.4318 17.0402C17.2335 16.5444 16.7534 16.2191 16.2193 16.2191C15.6852 16.2191 15.205 16.5444 15.0067 17.0402L14.1021 19.3036L11.8422 20.1595C11.3429 20.3474 11.0089 20.8223 11.0002 21.3547C10.9915 21.8888 11.3064 22.3742 11.7987 22.5812L14.0916 23.5485L15.0067 25.8379C15.205 26.3337 15.6852 26.659 16.2193 26.659C16.7534 26.659 17.2335 26.3337 17.4318 25.8379V25.8362ZM47.1372 34.8391C47.9009 36.0604 47.5321 37.6713 46.3109 38.4368C45.8794 38.7047 45.401 38.8352 44.9261 38.8352C44.0579 38.8352 43.209 38.402 42.7132 37.6122L38.8354 31.4258V47.5337H43.1846C44.6251 47.5337 45.7942 48.7028 45.7942 50.1432C45.7942 51.5837 44.6251 52.7528 43.1846 52.7528H20.5685C19.1281 52.7528 17.959 51.5837 17.959 50.1432C17.959 48.7028 19.1281 47.5337 20.5685 47.5337H24.9178V31.4206L21.04 37.6122C20.2728 38.8335 18.6653 39.1988 17.4423 38.4385C16.2228 37.6731 15.8522 36.0621 16.6159 34.8408L22.3691 25.6622C24.2202 22.9813 27.162 21.4399 30.3039 21.4399H33.451C36.5929 21.4399 39.533 22.9813 41.3179 25.563L47.1372 34.8408V34.8391ZM30.1386 26.6608V35.3558H33.618V26.6608C33.5623 26.659 30.1943 26.659 30.1386 26.6608ZM33.618 47.5337V40.5749H30.1386V47.5337H33.618Z" fill="#4CAF50"/>
</svg>
