<svg width="64" height="64" viewBox="0 0 64 64" fill="none" xmlns="http://www.w3.org/2000/svg">
<path d="M30.6174 47.75C30.6174 48.9935 29.6037 50 28.3514 50H20.934C18.4338 50 16.1406 48.7625 14.9502 46.769C14.3203 45.713 14 44.5295 14 43.25C14 37.9775 19.097 32.1965 23.3737 28.2755C24.1487 27.5645 24.5747 26.591 24.5747 25.535V18.5H23.8194C22.567 18.5 21.5534 17.4935 21.5534 16.25C21.5534 15.0065 22.567 14 23.8194 14H38.9261C40.1784 14 41.1921 15.0065 41.1921 16.25C41.1921 17.4935 40.1784 18.5 38.9261 18.5H38.1707V25.535C38.1707 25.9565 38.2402 26.3705 38.3777 26.765C38.7871 27.9395 38.1602 29.2205 36.9773 29.627C35.796 30.0335 34.5043 29.4095 34.0949 28.2365C33.7928 27.368 33.6387 26.459 33.6387 25.5365V18.5H29.1067V25.535C29.1067 27.8285 28.1369 30.0335 26.4479 31.5815C25.1835 32.741 24.0535 33.887 23.0655 35H26.8422C28.0946 35 29.1082 36.0065 29.1082 37.25C29.1082 38.4935 28.0946 39.5 26.8422 39.5H19.7572C18.961 40.928 18.532 42.2045 18.532 43.25C18.532 43.718 18.6347 44.117 18.8477 44.4725C19.2209 45.0965 20.0397 45.5 20.934 45.5H28.3514C29.6037 45.5 30.6174 46.5065 30.6174 47.75ZM49.6956 45.125C49.2757 45.8465 48.5143 46.25 47.7318 46.25C47.3481 46.25 46.9583 46.1525 46.6003 45.947L45.5791 45.362C44.9552 45.89 44.2436 46.3055 43.4581 46.5845V47.7485C43.4581 48.992 42.4444 49.9985 41.1921 49.9985C39.9397 49.9985 38.9261 48.992 38.9261 47.7485V46.5845C38.139 46.3055 37.4275 45.89 36.8051 45.362L35.7839 45.947C35.4274 46.1525 35.0376 46.25 34.6524 46.25C33.8683 46.25 33.1085 45.8465 32.6885 45.125C32.0616 44.0495 32.4347 42.6725 33.5179 42.0515L34.5194 41.477C34.4454 41.078 34.3941 40.67 34.3941 40.25C34.3941 39.83 34.4439 39.422 34.5194 39.023L33.5179 38.4485C32.4347 37.8275 32.0631 36.4505 32.6885 35.375C33.3154 34.2995 34.6992 33.929 35.7839 34.5515L36.8051 35.1365C37.429 34.6085 38.1405 34.193 38.9261 33.914V32.75C38.9261 31.5065 39.9397 30.5 41.1921 30.5C42.4444 30.5 43.4581 31.5065 43.4581 32.75V33.914C44.2451 34.193 44.9567 34.6085 45.5791 35.1365L46.6003 34.5515C47.6849 33.929 49.0702 34.2995 49.6956 35.375C50.3226 36.4505 49.9494 37.8275 48.8663 38.4485L47.8647 39.023C47.9387 39.422 47.9901 39.83 47.9901 40.25C47.9901 40.67 47.9402 41.078 47.8647 41.477L48.8663 42.0515C49.9494 42.6725 50.3211 44.0495 49.6956 45.125ZM43.4581 40.25C43.4581 39.0095 42.4414 38 41.1921 38C39.9427 38 38.9261 39.0095 38.9261 40.25C38.9261 41.4905 39.9427 42.5 41.1921 42.5C42.4414 42.5 43.4581 41.4905 43.4581 40.25Z" fill="#4CAF50"/>
</svg>
